<svg width="30" height="29" viewBox="0 0 30 29" fill="none" xmlns="http://www.w3.org/2000/svg">
<g filter="url(#filter0_d_10112_29)">
<path d="M24.6811 7.74764C24.5616 7.30367 24.3276 6.89887 24.0025 6.57376C23.6774 6.24865 23.2726 6.01464 22.8286 5.89514C21.1936 5.45264 14.6236 5.45264 14.6236 5.45264C14.6236 5.45264 8.05361 5.45264 6.41861 5.89514C5.97464 6.01464 5.56985 6.24865 5.24474 6.57376C4.91963 6.89887 4.68561 7.30367 4.56611 7.74764C4.26082 9.41509 4.11267 11.1075 4.12361 12.8026C4.11267 14.4978 4.26082 16.1902 4.56611 17.8576C4.68561 18.3016 4.91963 18.7064 5.24474 19.0315C5.56985 19.3566 5.97464 19.5906 6.41861 19.7101C8.05361 20.1526 14.6236 20.1526 14.6236 20.1526C14.6236 20.1526 21.1936 20.1526 22.8286 19.7101C23.2726 19.5906 23.6774 19.3566 24.0025 19.0315C24.3276 18.7064 24.5616 18.3016 24.6811 17.8576C24.9864 16.1902 25.1346 14.4978 25.1236 12.8026C25.1346 11.1075 24.9864 9.41509 24.6811 7.74764ZM12.5236 15.9526V9.65264L17.9761 12.8026L12.5236 15.9526Z" fill="white"/>
</g>
<defs>
<filter id="filter0_d_10112_29" x="-1.37646" y="0.802734" width="32" height="32" filterUnits="userSpaceOnUse" color-interpolation-filters="sRGB">
<feFlood flood-opacity="0" result="BackgroundImageFix"/>
<feColorMatrix in="SourceAlpha" type="matrix" values="0 0 0 0 0 0 0 0 0 0 0 0 0 0 0 0 0 0 127 0" result="hardAlpha"/>
<feOffset dy="4"/>
<feGaussianBlur stdDeviation="2"/>
<feComposite in2="hardAlpha" operator="out"/>
<feColorMatrix type="matrix" values="0 0 0 0 0 0 0 0 0 0 0 0 0 0 0 0 0 0 0.25 0"/>
<feBlend mode="normal" in2="BackgroundImageFix" result="effect1_dropShadow_10112_29"/>
<feBlend mode="normal" in="SourceGraphic" in2="effect1_dropShadow_10112_29" result="shape"/>
</filter>
</defs>
</svg>
